<svg width="25" height="25" viewBox="0 0 25 25" fill="none" xmlns="http://www.w3.org/2000/svg">
<path fill-rule="evenodd" clip-rule="evenodd" d="M15.8531 7.25961C15.9257 7.18686 16.0119 7.12913 16.1068 7.08975C16.2017 7.05036 16.3035 7.03009 16.4062 7.03009C16.509 7.03009 16.6108 7.05036 16.7057 7.08975C16.8006 7.12913 16.8868 7.18686 16.9594 7.25961L21.6469 11.9471C21.7196 12.0197 21.7773 12.1059 21.8167 12.2008C21.8561 12.2957 21.8764 12.3975 21.8764 12.5002C21.8764 12.603 21.8561 12.7048 21.8167 12.7997C21.7773 12.8946 21.7196 12.9808 21.6469 13.0534L16.9594 17.7409C16.8127 17.8876 16.6137 17.97 16.4062 17.97C16.1988 17.97 15.9998 17.8876 15.8531 17.7409C15.7064 17.5942 15.624 17.3952 15.624 17.1877C15.624 16.9803 15.7064 16.7813 15.8531 16.6346L19.9891 12.5002L15.8531 8.36586C15.7804 8.29329 15.7226 8.20708 15.6833 8.11216C15.6439 8.01725 15.6236 7.9155 15.6236 7.81274C15.6236 7.70998 15.6439 7.60822 15.6833 7.51331C15.7226 7.41839 15.7804 7.33218 15.8531 7.25961Z" fill="#F78CB6"/>
<path fill-rule="evenodd" clip-rule="evenodd" d="M3.125 12.5002C3.125 12.293 3.20731 12.0943 3.35382 11.9478C3.50034 11.8013 3.69905 11.719 3.90625 11.719H20.3125C20.5197 11.719 20.7184 11.8013 20.8649 11.9478C21.0114 12.0943 21.0938 12.293 21.0938 12.5002C21.0938 12.7074 21.0114 12.9062 20.8649 13.0527C20.7184 13.1992 20.5197 13.2815 20.3125 13.2815H3.90625C3.69905 13.2815 3.50034 13.1992 3.35382 13.0527C3.20731 12.9062 3.125 12.7074 3.125 12.5002Z" fill="#F78CB6"/>
</svg>
