<svg width="40" height="30" viewBox="0 0 40 30" fill="none" xmlns="http://www.w3.org/2000/svg">
<path d="M1 13.4419C0.447715 13.4419 0 13.8896 0 14.4419C0 14.9941 0.447715 15.4419 1 15.4419V13.4419ZM26.6279 14.4419L27.3143 15.1691C27.5211 14.974 27.635 14.7 27.6276 14.4157C27.6201 14.1314 27.492 13.8638 27.2753 13.6797L26.6279 14.4419ZM19.5346 19.7611C19.1329 20.1402 19.1146 20.7731 19.4937 21.1747C19.8727 21.5764 20.5056 21.5947 20.9073 21.2156L19.5346 19.7611ZM20.8683 8.23782C20.4474 7.88029 19.8163 7.93169 19.4588 8.35263C19.1012 8.77357 19.1526 9.40465 19.5736 9.76218L20.8683 8.23782ZM13 2H37V0H13V2ZM38 3V27H40V3H38ZM37 28H13V30H37V28ZM12 27V3H10V27H12ZM13 28C12.4477 28 12 27.5523 12 27H10C10 28.6569 11.3431 30 13 30V28ZM38 27C38 27.5523 37.5523 28 37 28V30C38.6569 30 40 28.6569 40 27H38ZM37 2C37.5523 2 38 2.44772 38 3H40C40 1.34315 38.6569 0 37 0V2ZM13 0C11.3431 0 10 1.34315 10 3H12C12 2.44772 12.4477 2 13 2V0ZM1 15.4419H26.6279V13.4419H1V15.4419ZM25.9416 13.7146L19.5346 19.7611L20.9073 21.2156L27.3143 15.1691L25.9416 13.7146ZM27.2753 13.6797L20.8683 8.23782L19.5736 9.76218L25.9805 15.204L27.2753 13.6797Z" fill="white"/>
</svg>
