<svg width="18" height="19" viewBox="0 0 18 19" fill="none" xmlns="http://www.w3.org/2000/svg">
<path fill-rule="evenodd" clip-rule="evenodd" d="M6.58575 5.51733C6.63813 5.57249 6.67969 5.63801 6.70805 5.71014C6.73641 5.78228 6.751 5.85961 6.751 5.93771C6.751 6.01581 6.73641 6.09314 6.70805 6.16527C6.67969 6.23741 6.63813 6.30293 6.58575 6.35808L3.60787 9.50021L6.58575 12.6423C6.63805 12.6975 6.67953 12.7631 6.70784 12.8352C6.73614 12.9073 6.75071 12.9846 6.75071 13.0627C6.75071 13.1408 6.73614 13.2181 6.70784 13.2902C6.67953 13.3623 6.63805 13.4279 6.58575 13.4831C6.53345 13.5383 6.47136 13.5821 6.40303 13.612C6.3347 13.6418 6.26146 13.6572 6.1875 13.6572C6.11354 13.6572 6.0403 13.6418 5.97197 13.612C5.90364 13.5821 5.84155 13.5383 5.78925 13.4831L2.41425 9.92058C2.36186 9.86543 2.3203 9.79991 2.29195 9.72777C2.26359 9.65564 2.24899 9.57831 2.24899 9.50021C2.24899 9.42211 2.26359 9.34478 2.29195 9.27264C2.3203 9.20051 2.36186 9.13499 2.41425 9.07983L5.78925 5.51733C5.8415 5.46204 5.90357 5.41817 5.97191 5.38824C6.04025 5.3583 6.11351 5.3429 6.1875 5.3429C6.26149 5.3429 6.33475 5.3583 6.40309 5.38824C6.47142 5.41817 6.5335 5.46204 6.58575 5.51733Z" fill="#56597A" fill-opacity="0.6"/>
<path fill-rule="evenodd" clip-rule="evenodd" d="M2.8125 9.50024C2.8125 9.34277 2.87176 9.19175 2.97725 9.0804C3.08274 8.96905 3.22582 8.90649 3.375 8.90649H15.1875C15.3367 8.90649 15.4798 8.96905 15.5852 9.0804C15.6907 9.19175 15.75 9.34277 15.75 9.50024C15.75 9.65772 15.6907 9.80874 15.5852 9.92009C15.4798 10.0314 15.3367 10.094 15.1875 10.094H3.375C3.22582 10.094 3.08274 10.0314 2.97725 9.92009C2.87176 9.80874 2.8125 9.65772 2.8125 9.50024Z" fill="#56597A" fill-opacity="0.6"/>
</svg>
