<svg width="43" height="43" viewBox="0 0 43 43" fill="none" xmlns="http://www.w3.org/2000/svg">
<path d="M6.30284 0H1.26521C0.56973 0 0.00585938 0.563871 0.00585938 1.25943V6.38105C0.00585938 7.07661 0.569647 7.64048 1.26529 7.64048C1.96085 7.64048 2.52472 7.07661 2.52472 6.38105V2.51886H6.30292C6.99848 2.51886 7.56235 1.95499 7.56235 1.25943C7.56227 0.563871 6.9984 0 6.30284 0Z" fill="#F78CB6"/>
<path d="M41.7346 0H36.6969C36.0014 0 35.4375 0.563871 35.4375 1.25943C35.4375 1.95499 36.0013 2.51886 36.6969 2.51886H40.4751V6.38105C40.4751 7.07661 41.039 7.64048 41.7346 7.64048C42.4301 7.64048 42.994 7.07661 42.994 6.38105V1.25943C42.994 0.563871 42.4301 0 41.7346 0Z" fill="#F78CB6"/>
<path d="M6.30292 40.469H2.52472V36.6068C2.52472 35.9113 1.96085 35.3474 1.26529 35.3474C0.56973 35.3474 0.00585938 35.9113 0.00585938 36.6068V41.7285C0.00585938 42.424 0.569646 42.9879 1.26529 42.9879H6.30292C6.99848 42.9879 7.56235 42.424 7.56235 41.7285C7.56235 41.0329 6.99848 40.469 6.30292 40.469Z" fill="#F78CB6"/>
<path d="M41.7346 35.3474C41.039 35.3474 40.4751 35.9113 40.4751 36.6068V40.469H36.6969C36.0014 40.469 35.4375 41.0329 35.4375 41.7285C35.4375 42.424 36.0014 42.9879 36.6969 42.9879H41.7346C42.4301 42.9879 42.994 42.424 42.994 41.7285V36.6068C42.994 35.9113 42.4301 35.3474 41.7346 35.3474Z" fill="#F78CB6"/>
<path d="M39.6713 10.332L22.1309 0.169721C21.7405 -0.056533 21.2586 -0.056533 20.8682 0.169721L3.32067 10.3319C2.93384 10.5561 2.69238 10.9734 2.69238 11.4209C2.69238 11.4234 2.69263 11.4259 2.69263 11.4283V31.5782C2.69263 32.0299 2.93812 32.4527 3.33344 32.6753L20.8683 42.8303C21.0572 42.9398 21.2819 43 21.4997 43C21.727 43 21.9492 42.9357 22.1311 42.8303L39.6588 32.6752C39.6617 32.6735 39.6646 32.6718 39.6675 32.6702C40.0738 32.3771 40.2927 32.1307 40.2988 31.5934C40.2989 31.5884 40.2993 31.5834 40.2993 31.5784V11.4285C40.2993 11.426 40.2996 11.4235 40.2996 11.421C40.2996 10.9731 40.058 10.5557 39.6713 10.332ZM20.2402 39.5555L6.48134 31.5839L17.0885 25.501C17.6919 25.155 17.9005 24.3854 17.5544 23.782C17.2085 23.1786 16.4389 22.97 15.8354 23.3161L5.21124 29.4043V13.5978L20.2402 22.2289V39.5555ZM21.4996 20.0476L6.47949 11.4172L21.4996 2.71495L36.5197 11.4172L21.4996 20.0476ZM37.7887 29.4043L27.1638 23.316C26.5604 22.97 25.7908 23.1785 25.4448 23.7819C25.0987 24.3854 25.3073 25.1549 25.9107 25.5009L36.5179 31.5837L22.7589 39.5553V22.2289L37.7886 13.5978V29.4043H37.7887Z" fill="#F78CB6"/>
</svg>
