<svg width="178" height="51" viewBox="0 0 178 51" fill="none" xmlns="http://www.w3.org/2000/svg">
<path d="M168.289 37.333C168.289 34.7651 170.405 32.6505 172.974 32.6505C175.544 32.6505 177.66 34.7651 177.66 37.333C177.66 39.9008 175.544 42.0155 172.974 42.0155C170.405 42.091 168.289 39.9763 168.289 37.333Z" fill="#C1C1C1"/>
<path d="M18.3422 24.9471C18.3422 22.0016 17.7375 19.7359 16.6039 18.3009C15.4702 16.866 13.7318 16.1107 11.3889 16.1107H8.89498V34.3121H10.7844C13.3541 34.3121 15.319 33.5569 16.5282 31.9709C17.7375 30.4604 18.3422 28.1191 18.3422 24.9471ZM27.2602 24.645C27.2602 30.0828 25.8244 34.2366 22.8769 37.1821C19.9293 40.1275 15.8481 41.5625 10.5577 41.5625H0.279007V9.08691H11.2378C16.3015 9.08691 20.2316 10.4464 23.028 13.0898C25.8999 15.7331 27.2602 19.5849 27.2602 24.645Z" fill="#C1C1C1"/>
<path d="M55.6775 41.5624H63.8399V8.93585H55.6775V41.5624Z" fill="#C1C1C1"/>
<path d="M75.3279 29.403C75.3279 31.5176 75.6302 33.1037 76.1593 34.161C76.6883 35.2183 77.5952 35.8225 78.88 35.8225C80.1648 35.8225 81.0718 35.2939 81.6008 34.161C82.1299 33.1037 82.3566 31.5176 82.3566 29.403C82.3566 27.3638 82.1299 25.7778 81.6008 24.7204C81.0718 23.6631 80.1648 23.1344 78.88 23.1344C77.5952 23.1344 76.7639 23.6631 76.1593 24.7204C75.6302 25.7022 75.3279 27.2883 75.3279 29.403ZM90.6702 29.403C90.6702 33.3302 89.612 36.4267 87.5714 38.6925C85.4552 40.8827 82.5834 42.0156 78.8045 42.0156C75.1768 42.0156 72.3804 40.8827 70.2642 38.617C68.148 36.3512 67.09 33.2547 67.09 29.403C67.09 25.4757 68.1479 22.3792 70.1885 20.189C72.3047 17.9987 75.1767 16.9414 78.9556 16.9414C81.2985 16.9414 83.3391 17.4701 85.153 18.4519C86.9668 19.4337 88.3272 20.9442 89.3097 22.8323C90.2167 24.6449 90.6702 26.8351 90.6702 29.403Z" fill="#C1C1C1"/>
<path d="M93.92 41.5625H102.082V29.1009V17.3191H93.92V41.5625Z" fill="#C1C1C1"/>
<path d="M93.92 14.3736H102.082V8.93585H93.92V14.3736Z" fill="#C1C1C1"/>
<path d="M118.634 35.3694C119.767 35.3694 121.052 35.0673 122.564 34.5386V40.6562C121.43 41.1093 120.448 41.4869 119.39 41.7135C118.407 41.9401 117.198 42.0156 115.913 42.0156C113.192 42.0156 111.227 41.3359 109.942 39.9764C108.733 38.617 108.128 36.5023 108.128 33.6323V23.6631H105.257V17.3191H108.128V11.126L116.366 9.6911V17.3191H121.581V23.5876H116.366V33.0282C116.442 34.6142 117.198 35.3694 118.634 35.3694Z" fill="#C1C1C1"/>
<path d="M137.528 35.3694C138.662 35.3694 139.947 35.0673 141.458 34.5386V40.6562C140.325 41.1093 139.342 41.4869 138.284 41.7135C137.302 41.9401 136.092 42.0156 134.808 42.0156C132.087 42.0156 130.122 41.3359 128.912 39.9764C127.703 38.617 127.099 36.5023 127.099 33.6323V23.6631H124.227V17.3191H127.099V11.0505L135.337 9.6911V17.3191H140.551V23.5876H135.337V33.0282C135.337 34.6142 136.092 35.3694 137.528 35.3694Z" fill="#C1C1C1"/>
<path d="M151.813 26.4574C151.888 25.098 152.266 24.1917 152.946 23.512C153.626 22.9078 154.382 22.6057 155.365 22.6057C156.423 22.6057 157.254 22.9833 157.859 23.6631C158.463 24.3428 158.841 25.3246 158.841 26.4574H151.813ZM163.376 19.7358C161.411 17.8477 158.69 16.8658 155.138 16.8658C151.359 16.8658 148.487 17.9232 146.522 20.1134C144.482 22.3036 143.499 25.4756 143.499 29.554C143.499 33.4812 144.557 36.5777 146.749 38.6924C148.941 40.8071 151.964 41.94 155.969 41.94C157.859 41.94 159.522 41.7889 160.882 41.5623C162.242 41.3358 163.527 40.8826 164.812 40.2029L163.527 34.7651C162.62 35.1428 161.713 35.4449 160.882 35.5959C159.673 35.898 158.388 36.0491 156.952 36.0491C155.365 36.0491 154.156 35.6714 153.249 34.9162C152.342 34.1609 151.888 33.1036 151.813 31.7441H166.399V28.0435C166.248 24.4183 165.265 21.6239 163.376 19.7358Z" fill="#C1C1C1"/>
<path d="M38.1436 26.4574C38.2192 25.098 38.5971 24.1917 39.2773 23.512C39.9575 22.9078 40.7132 22.6057 41.6957 22.6057C42.7538 22.6057 43.5852 22.9833 44.1898 23.6631C44.7945 24.3428 45.0968 25.3246 45.1724 26.4574H38.1436ZM49.6314 19.7358C47.6664 17.8477 44.9457 16.8658 41.3935 16.8658C37.6146 16.8658 34.7425 17.9232 32.7775 20.1134C30.8125 22.3036 29.7544 25.4756 29.7544 29.554C29.7544 33.4812 30.8125 36.5777 33.0043 38.6924C35.196 40.8071 38.2192 41.94 42.1493 41.94C44.0387 41.94 45.7014 41.7889 47.0618 41.5623C48.4222 41.3358 49.707 40.8826 50.9918 40.2029L49.707 34.7651C48.8001 35.1428 47.8932 35.4449 47.0618 35.5959C45.8526 35.898 44.5676 36.0491 43.1316 36.0491C41.5445 36.0491 40.3353 35.6714 39.4284 34.9162C38.5215 34.1609 38.0681 33.1036 37.9925 31.7441H52.5789V28.0435C52.5789 24.4183 51.5964 21.6239 49.6314 19.7358Z" fill="#C1C1C1"/>
</svg>
