<svg width="157" height="43" viewBox="0 0 157 43" fill="none" xmlns="http://www.w3.org/2000/svg">
<path d="M0 38.1088C0 37.7599 0.282723 37.4771 0.63168 37.4771H1.81746C2.72634 37.4771 4.54441 37.2748 4.54441 34.8456V12.9812C4.54441 11.6651 4.45334 8.52721 2.18113 8.52721H0.961932C0.532328 8.52721 0.228141 8.10772 0.361529 7.69928L2.31207 1.72224C2.39701 1.46221 2.63926 1.2865 2.91247 1.2865H141.646C141.995 1.2865 142.278 1.56923 142.278 1.91818V7.89522C142.278 8.24418 141.995 8.5269 141.646 8.5269H13.6335C12.4521 8.5269 10.9072 8.83047 10.9072 11.4621V18.3455C11.1798 19.1551 12.2705 19.4586 12.8157 19.4586C13.3272 19.4586 15.0364 19.37 15.248 16.6063C15.2732 16.276 15.5402 16.0172 15.8714 16.0172H17.3651C17.714 16.0172 17.9967 16.2999 17.9967 16.6489V26.6211C17.9967 26.9701 17.714 27.2528 17.3651 27.2528H15.8193C15.5249 27.2528 15.2753 27.0495 15.2054 26.7631C14.9634 25.7705 14.0635 24.5256 12.9068 24.4182C11.8161 24.3167 10.9072 24.7218 10.9072 26.3415V34.8443C10.9072 35.7554 11.9072 37.4759 14.2701 37.4759H15.2744C15.6233 37.4759 15.9061 37.7586 15.9061 38.1076V42.0323C15.9061 42.3813 15.6233 42.664 15.2744 42.664H0.63168C0.282723 42.664 0 42.3813 0 42.0323V38.1088Z" fill="#C1C1C1"/>
<path d="M92.7784 16.828V27.9634H86.4162V22.5867C86.4162 22.5867 86.1446 20.6629 85.2348 20.562C85.1685 20.5555 85.0959 20.5589 85.0167 20.5745C83.9996 20.761 81.9178 22.6594 81.3269 23.5977V35.7566C81.3269 37.3582 82.5274 37.9111 83.2192 38.0975C83.4973 38.1702 83.6899 38.4198 83.6899 38.7071V42.0336C83.6899 42.3825 83.4072 42.6652 83.0582 42.6652H73.2338C72.8863 42.6652 72.6021 42.381 72.6021 42.0336V38.6712C72.6021 38.356 72.8351 38.0935 73.147 38.0469C74.054 37.9117 74.8884 37.3778 74.9651 35.8581V18.7522C74.9651 18.4995 74.7851 18.0162 74.3965 17.5992C74.0936 17.2717 73.6637 16.9829 73.0964 16.8743C72.806 16.8188 72.6024 16.5545 72.6024 16.2589V14.4246C72.6024 14.0756 72.8851 13.7929 73.2341 13.7929H80.1743C80.4493 13.7929 80.6808 13.975 80.7759 14.2335C81.0126 14.8775 81.6992 15.4472 82.1457 15.6125C82.7838 15.1071 86.1449 12.9812 88.7795 12.9812C91.4169 12.9803 92.7784 14.4997 92.7784 16.828Z" fill="#C1C1C1"/>
<path d="M156.782 14.424V16.2657C156.782 16.5625 156.573 16.8185 156.28 16.8817C155.288 17.0933 154.419 17.9114 154.419 18.954V35.7564C154.419 36.9664 155.351 37.8823 156.302 38.1224C156.583 38.1951 156.782 38.4447 156.782 38.7354V42.0333C156.782 42.3822 156.499 42.665 156.15 42.665H146.326C145.977 42.665 145.694 42.3822 145.694 42.0333V38.5676C145.694 38.2947 145.868 38.0543 146.127 37.9688C146.331 37.9016 146.585 37.8007 146.841 37.6551C147.422 37.3267 148.013 36.7707 148.057 35.8575V18.7519C148.057 18.4992 147.877 18.016 147.488 17.5989C147.185 17.2714 146.755 16.9826 146.188 16.874C145.898 16.8185 145.694 16.5542 145.694 16.2586V14.4243C145.694 14.0753 145.977 13.7926 146.326 13.7926H156.15C156.499 13.7923 156.782 14.0753 156.782 14.424Z" fill="#C1C1C1"/>
<path d="M68.2398 16.828V27.3317C68.2398 27.6806 67.9571 27.9634 67.6081 27.9634H62.5096C62.1607 27.9634 61.8779 27.6806 61.8779 27.3317V22.587C61.8779 22.587 61.6063 20.6632 60.6965 20.5623C60.6333 20.5558 60.5606 20.5592 60.4815 20.5749C59.5214 20.7472 57.619 22.4383 56.9082 23.4217C56.83 23.53 56.7889 23.6591 56.7889 23.7924V35.7566C56.7889 36.4674 57.1078 37.074 57.5629 37.5036C57.8855 37.8081 58.2746 38.0239 58.6686 38.1233C58.9514 38.1951 59.1519 38.4437 59.1519 38.7354V42.0333C59.1519 42.3822 58.8692 42.665 58.5202 42.665H48.6958C48.3468 42.665 48.0641 42.3822 48.0641 42.0333V38.671C48.0641 38.3557 48.2971 38.0932 48.6093 38.0466C48.9727 37.9927 49.3238 37.8746 49.6215 37.6551C50.0637 37.3266 50.3795 36.7707 50.4271 35.8575V18.7519C50.4271 18.4992 50.2437 18.0159 49.8585 17.5989C49.5571 17.2757 49.1364 16.9905 48.5814 16.8783C48.2833 16.8182 48.0644 16.5628 48.0644 16.2586V14.4243C48.0644 14.0753 48.3471 13.7926 48.6961 13.7926H55.6335C55.9086 13.7926 56.1398 13.9744 56.2348 14.2326C56.4722 14.8769 57.1609 15.4466 57.6074 15.6119C58.2424 15.1065 61.6066 12.9806 64.2412 12.9806C66.875 12.9803 68.2398 14.4997 68.2398 16.828Z" fill="#C1C1C1"/>
<path d="M141.97 16.828V27.9634H135.608V22.5867C135.608 22.5867 135.333 20.6629 134.426 20.562C134.353 20.5525 134.268 20.5589 134.176 20.581C134.173 20.5779 134.17 20.581 134.167 20.581C133.131 20.8116 131.1 22.6723 130.515 23.5977V35.7566C130.515 36.5938 130.809 37.1436 131.188 37.5036C131.567 37.8636 132.031 38.0344 132.379 38.1132C132.67 38.1828 132.878 38.4321 132.878 38.7323V42.0333C132.878 42.3807 132.597 42.665 132.246 42.665H122.422C122.075 42.665 121.79 42.3807 121.79 42.0333V38.6688C121.79 38.356 122.024 38.0939 122.337 38.0466C123.243 37.9108 124.077 37.3769 124.153 35.8575V18.7519C124.153 18.0822 123.863 17.6461 123.49 17.3619C123.111 17.0776 122.65 16.9448 122.302 16.8817C122.006 16.828 121.791 16.5628 121.791 16.2595V14.4243C121.791 14.0738 122.075 13.7926 122.422 13.7926H129.343C129.637 13.7926 129.89 13.9947 129.959 14.2789C130.089 14.8192 130.437 15.6119 131.334 15.6119C131.972 15.1065 135.333 12.9806 137.97 12.9806C140.605 12.9803 141.97 14.4997 141.97 16.828Z" fill="#C1C1C1"/>
<path d="M37.5328 32.6182C37.1838 32.6182 36.9011 32.9009 36.9011 33.2498V33.6325V34.2884C36.9011 35.4015 36.7196 36.0111 33.72 36.0111C30.7205 36.0111 29.8119 33.7843 29.8119 32.1643V30.0847V29.1761C29.8119 28.6702 30.1756 28.8701 30.8118 28.8701H42.6316C42.9806 28.8701 43.2633 28.5874 43.2633 28.2384V20.5724C43.2633 17.2322 42.627 16.2196 41.3548 14.803C40.0822 13.3857 35.6289 12.9809 33.6293 12.9809C28.5396 12.9809 26.9034 13.7907 25.4496 15.1065C23.9952 16.4226 23.45 19.1554 23.45 21.1802V32.6185C23.45 35.6551 24.1004 37.8252 25.7234 39.8377C27.9843 42.6407 32.7207 42.6401 33.8114 42.6401C34.9018 42.6401 38.5376 42.7416 41.1732 40.6156C43.2915 38.9074 43.355 34.7791 43.2985 33.2247C43.2863 32.8859 43.0063 32.6188 42.6672 32.6188L37.5328 32.6182ZM29.8116 20.7714C29.8116 19.7629 30.266 18.2496 33.4471 18.2496C36.6282 18.2496 36.9008 19.8889 36.9008 20.7714V23.0412C36.9008 23.4192 36.4464 23.7976 35.8104 23.7976H30.902C30.3565 23.7976 29.8116 23.4824 29.8116 23.104V20.7714Z" fill="#C1C1C1"/>
<path d="M116.156 35.7559V20.5723C116.156 18.2443 116.066 15.8148 113.884 14.0939C111.703 12.3734 108.158 12.4743 106.795 12.4743C105.432 12.4743 100.888 12.4743 98.7966 15.1058C96.7062 17.7377 97.0699 20.2681 97.0699 21.2804H103.567C103.567 21.2804 103.432 20.1991 104.25 19.2881C105.073 18.3713 107.25 17.3649 108.931 18.9845C109.55 19.5816 109.794 20.3512 109.794 21.2117V23.2036C109.794 23.6087 109.43 24.2158 108.976 24.2158C108.976 24.2158 100.705 24.4185 99.251 25.6331C97.7966 26.8477 96.5244 27.6573 96.5244 32.1115C96.5244 36.5655 97.524 39.8303 98.7055 40.7416C99.887 41.6526 100.432 42.6649 105.795 42.6649H118.519V38.1855C117.429 38.1855 116.156 37.1732 116.156 35.7559ZM109.794 35.7523C109.794 35.8906 109.43 36.0847 109.158 36.0847H106.022C103.795 36.0847 103.159 34.921 103.159 34.2007V32.0674C103.159 29.9893 106.704 30.0451 108.112 30.0451C109.521 30.0451 109.794 30.7654 109.794 31.2364V35.7523H109.794Z" fill="#C1C1C1"/>
<path d="M151.239 8.47664C154.421 8.47664 157 6.65396 157 4.40598C157 2.15769 154.421 0.335022 151.239 0.335022C148.058 0.335022 145.479 2.15769 145.479 4.40598C145.479 6.65396 148.058 8.47664 151.239 8.47664Z" fill="#C1C1C1"/>
<path d="M15.9055 38.1098V42.0332C15.9055 42.3807 15.6243 42.6649 15.2738 42.6649H12.4306V37.0451C12.9139 37.3073 13.5235 37.4778 14.2692 37.4778H15.2738C15.6243 37.4781 15.9055 37.759 15.9055 38.1098Z" fill="#C1C1C1"/>
<path d="M14.5213 18.7205V25.4086C14.8577 25.8309 15.0984 26.3267 15.206 26.771C15.2747 27.0544 15.5262 27.2528 15.8175 27.2528H17.3642C17.7131 27.2528 17.9958 26.97 17.9958 26.6211V16.6488C17.9958 16.2999 17.7131 16.0172 17.3642 16.0172H15.8779C15.5513 16.0172 15.2732 16.2661 15.249 16.5918C15.1711 17.635 14.8807 18.2979 14.5213 18.7205Z" fill="#C1C1C1"/>
<path d="M138.803 1.2865V8.52721H141.646C141.995 8.52721 142.278 8.24448 142.278 7.89553V1.91849C142.278 1.56953 141.995 1.28681 141.646 1.28681H138.803V1.2865Z" fill="#C1C1C1"/>
<path d="M88.7804 12.9809C88.2119 12.9809 87.6094 13.0836 87.0078 13.244C88.5253 13.7729 89.3048 15.0682 89.3048 16.8274V27.9621H92.7796V16.8274C92.7793 14.4991 91.4163 12.9809 88.7804 12.9809Z" fill="#C1C1C1"/>
<path d="M154.419 18.9539V35.7563C154.419 36.9663 155.351 37.8822 156.302 38.1223C156.583 38.195 156.782 38.4446 156.782 38.7353V42.0332C156.782 42.3806 156.501 42.6649 156.15 42.6649H153.307V38.1855C152.217 38.1855 150.944 37.1745 150.944 35.7563V18.9539C150.944 17.9113 151.813 17.0932 152.805 16.8816C153.099 16.8185 153.307 16.5627 153.307 16.2656V13.7922H156.15C156.501 13.7922 156.782 14.0734 156.782 14.4239V16.2656C156.782 16.5624 156.573 16.8185 156.28 16.8816C155.288 17.0932 154.419 17.9113 154.419 18.9539Z" fill="#C1C1C1"/>
<path d="M56.9079 23.4215C56.8297 23.5297 56.7886 23.6588 56.7886 23.7922V35.7564C56.7886 36.4672 57.1075 37.0737 57.5626 37.5033C57.8852 37.8078 58.2743 38.0237 58.6683 38.123C58.9511 38.1948 59.1516 38.4435 59.1516 38.7351V42.033C59.1516 42.382 58.8689 42.6647 58.5199 42.6647H55.6768V38.1853C54.587 38.1853 53.3138 37.1743 53.3138 35.7561V26.1196C53.3138 22.5 58.9575 20.6378 60.4941 20.5583C60.4876 20.5614 60.4846 20.5679 60.4815 20.5743C59.5214 20.7469 57.6187 22.4381 56.9079 23.4215Z" fill="#C1C1C1"/>
<path d="M81.3272 23.5973V35.7563C81.3272 37.3578 82.5277 37.9107 83.2195 38.0971C83.4976 38.1698 83.6902 38.4194 83.6902 38.7068V42.0332C83.6902 42.3821 83.4075 42.6649 83.0585 42.6649H80.2123V38.7353C80.2123 38.4436 80.0117 38.1947 79.729 38.1232C78.7787 37.8825 77.8493 36.9684 77.8493 35.7566V26.1185C77.8493 22.5014 83.4912 20.6376 85.0296 20.5588C85.0231 20.5619 85.0201 20.5683 85.017 20.5748C83.9996 20.7606 81.9181 22.6593 81.3272 23.5973Z" fill="#C1C1C1"/>
<path d="M134.205 20.5587C134.199 20.5617 134.195 20.5682 134.192 20.5746C134.186 20.5746 134.183 20.5777 134.176 20.581C134.173 20.578 134.17 20.581 134.167 20.581C133.131 20.8116 131.1 22.6723 130.515 23.5978V35.7567C130.515 36.5938 130.809 37.1436 131.188 37.5036C131.567 37.8636 132.031 38.0344 132.379 38.1132C132.67 38.1828 132.878 38.4321 132.878 38.7323V42.0333C132.878 42.3807 132.597 42.665 132.246 42.665H129.388V38.7354C129.388 38.4447 129.186 38.1951 128.904 38.1224C127.953 37.8823 127.025 36.9695 127.025 35.7564V26.1184C127.025 22.5015 132.667 20.6378 134.205 20.5587Z" fill="#C1C1C1"/>
<path d="M64.2406 12.9809C63.6721 12.9809 63.0695 13.0836 62.4679 13.244C63.9855 13.7729 64.7649 15.0682 64.7649 16.8274V27.9621H67.6081C67.9571 27.9621 68.2398 27.6794 68.2398 27.3304V16.8277C68.2398 14.4991 66.8762 12.9809 64.2406 12.9809Z" fill="#C1C1C1"/>
<path d="M137.97 12.9809C137.401 12.9809 136.799 13.0836 136.197 13.244C137.714 13.7729 138.494 15.0682 138.494 16.8274V27.9621H141.969V16.8274C141.969 14.4991 140.605 12.9809 137.97 12.9809Z" fill="#C1C1C1"/>
<path d="M37.8797 14.786C39.1522 16.2027 39.7882 17.2153 39.7882 20.5555V28.8535H42.6314C42.9803 28.8535 43.2631 28.5708 43.2631 28.2218V20.5558C43.2631 17.2156 42.6268 16.203 41.3545 14.7864C40.082 13.3691 35.6286 12.9643 33.629 12.9643C32.8759 12.9643 32.1998 12.9827 31.5874 13.017C33.7934 13.1642 36.8595 13.649 37.8797 14.786Z" fill="#C1C1C1"/>
<path d="M42.6666 32.6178H39.7882C39.7882 32.6178 40.3337 38.4894 37.6975 40.615C35.9607 42.0157 33.7937 42.4475 32.2028 42.5806C32.9305 42.6394 33.5097 42.6397 33.8105 42.6397C34.901 42.6397 38.5368 42.7409 41.1724 40.6153C43.2906 38.907 43.3541 34.7787 43.2977 33.224C43.286 32.8849 43.0061 32.6178 42.6666 32.6178Z" fill="#C1C1C1"/>
<path d="M116.156 35.7559V20.5723C116.156 18.2443 116.066 15.8148 113.884 14.0939C111.703 12.3734 108.158 12.4743 106.795 12.4743C106.459 12.4743 105.929 12.4743 105.291 12.5138C106.906 12.6119 108.958 12.9489 110.41 14.0936C112.591 15.8145 112.682 18.244 112.682 20.572V35.7556C112.682 37.1726 113.954 38.1848 115.045 38.1848V42.6643H118.52V38.1848C117.429 38.1855 116.156 37.1732 116.156 35.7559Z" fill="#C1C1C1"/>
<path d="M151.239 0.335022C150.634 0.335022 150.05 0.401562 149.502 0.524525C151.834 1.0452 153.525 2.58576 153.525 4.40598C153.525 6.22589 151.834 7.76646 149.502 8.28744C150.05 8.4101 150.634 8.47664 151.239 8.47664C154.421 8.47664 157 6.65396 157 4.40598C157 2.15769 154.421 0.335022 151.239 0.335022Z" fill="#C1C1C1"/>
</svg>
