<svg width="195" height="42" viewBox="0 0 195 42" fill="none" xmlns="http://www.w3.org/2000/svg">
<path d="M194.817 19.0162V15.583H190.567V10.2576L190.43 10.3034L186.438 11.5241L186.362 11.5546V15.583H180.055V13.3399C180.055 12.2871 180.284 11.4936 180.756 10.9596C181.213 10.4255 181.868 10.1661 182.706 10.1661C183.3 10.1661 183.925 10.3034 184.549 10.5933L184.702 10.6696V7.03803L184.625 7.00751C184.047 6.79389 183.254 6.68707 182.264 6.68707C181.03 6.68707 179.903 6.96173 178.913 7.49579C177.922 8.02985 177.161 8.79279 176.612 9.76936C176.079 10.7459 175.805 11.8598 175.805 13.111V15.583H172.849V19.0162H175.805V33.4664H180.055V19.0162H186.362V28.2021C186.362 31.9862 188.145 33.8936 191.648 33.8936C192.227 33.8936 192.837 33.8326 193.446 33.6952C194.071 33.5579 194.513 33.4206 194.756 33.2832L194.817 33.2527V29.7737L194.65 29.8958C194.421 30.0484 194.132 30.1704 193.797 30.262C193.461 30.3535 193.172 30.3993 192.959 30.3993C192.136 30.3993 191.527 30.1704 191.146 29.7432C190.765 29.3007 190.567 28.5225 190.567 27.4544V19.0162H194.817ZM163.358 30.4146C161.82 30.4146 160.601 29.8958 159.748 28.8887C158.879 27.8816 158.453 26.432 158.453 24.5857C158.453 22.6936 158.895 21.2135 159.748 20.1759C160.601 19.1536 161.804 18.6348 163.328 18.6348C164.805 18.6348 165.979 19.1383 166.816 20.1149C167.654 21.1067 168.096 22.5715 168.096 24.4942C168.096 26.432 167.7 27.9274 166.893 28.9192C166.085 29.911 164.897 30.4146 163.358 30.4146ZM163.541 15.1557C160.601 15.1557 158.255 16.0255 156.594 17.7192C154.934 19.4282 154.08 21.7781 154.08 24.723C154.08 27.5154 154.903 29.7737 156.533 31.4064C158.163 33.0544 160.372 33.8783 163.114 33.8783C165.963 33.8783 168.264 33.0086 169.924 31.2691C171.585 29.5448 172.438 27.2102 172.438 24.3263C172.438 21.4882 171.646 19.2146 170.077 17.5819C168.507 15.9797 166.314 15.1557 163.541 15.1557ZM147.24 15.1557C145.245 15.1557 143.584 15.6745 142.32 16.6816C141.04 17.704 140.4 19.0315 140.4 20.6489C140.4 21.4882 140.537 22.2358 140.811 22.8615C141.086 23.5023 141.512 24.0516 142.076 24.5247C142.639 24.9824 143.508 25.4707 144.666 25.9743C145.641 26.371 146.357 26.7067 146.814 26.9813C147.255 27.2407 147.575 27.5001 147.758 27.7595C147.926 28.0037 148.017 28.3546 148.017 28.7666C148.017 29.9721 147.118 30.5519 145.275 30.5519C144.589 30.5519 143.813 30.4146 142.959 30.1247C142.106 29.85 141.314 29.438 140.583 28.9192L140.4 28.7971V32.9018L140.461 32.9323C141.055 33.207 141.817 33.4511 142.716 33.6342C143.614 33.8173 144.422 33.9089 145.123 33.9089C147.301 33.9089 149.038 33.3901 150.318 32.383C151.597 31.3606 152.252 29.9873 152.252 28.3241C152.252 27.1187 151.902 26.0811 151.216 25.2571C150.531 24.4331 149.343 23.6702 147.682 22.9988C146.357 22.4647 145.519 22.0222 145.168 21.6865C144.833 21.3661 144.666 20.8931 144.666 20.3132C144.666 19.7944 144.879 19.3824 145.305 19.0467C145.747 18.711 146.357 18.5279 147.118 18.5279C147.819 18.5279 148.55 18.6348 149.266 18.8636C149.982 19.0773 150.622 19.3824 151.14 19.7334L151.308 19.8555V15.9645L151.247 15.9339C150.759 15.7203 150.12 15.5525 149.343 15.3999C148.55 15.232 147.85 15.1557 147.24 15.1557ZM129.325 30.4146C127.786 30.4146 126.567 29.8958 125.714 28.8887C124.846 27.8816 124.419 26.432 124.419 24.5857C124.419 22.6936 124.861 21.2135 125.714 20.1759C126.567 19.1536 127.771 18.6348 129.294 18.6348C130.772 18.6348 131.945 19.1383 132.783 20.1149C133.621 21.1067 134.063 22.5715 134.063 24.4942C134.063 26.432 133.666 27.9274 132.859 28.9192C132.052 29.911 130.879 30.4146 129.325 30.4146ZM129.507 15.1557C126.567 15.1557 124.221 16.0255 122.561 17.7192C120.9 19.4282 120.047 21.7933 120.047 24.7383C120.047 27.5307 120.87 29.789 122.5 31.4217C124.13 33.0696 126.339 33.8936 129.081 33.8936C131.93 33.8936 134.23 33.0238 135.891 31.2843C137.551 29.5601 138.404 27.2255 138.404 24.3416C138.404 21.5034 137.612 19.2298 136.043 17.5972C134.474 15.9797 132.28 15.1557 129.507 15.1557ZM113.603 18.6805V15.583H109.413V33.4511H113.603V24.311C113.603 22.7546 113.953 21.4729 114.654 20.5116C115.339 19.5655 116.254 19.0773 117.366 19.0773C117.746 19.0773 118.173 19.1383 118.63 19.2604C119.087 19.3824 119.407 19.5198 119.605 19.6571L119.788 19.7792V15.5372L119.727 15.5067C119.331 15.3388 118.782 15.2625 118.082 15.2625C117.03 15.2625 116.086 15.5982 115.279 16.2696C114.563 16.8647 114.06 17.6582 113.664 18.6653L113.603 18.6805ZM101.888 15.1557C99.968 15.1557 98.2465 15.5677 96.784 16.3917C95.3215 17.2157 94.1941 18.3754 93.4172 19.8555C92.6555 21.3356 92.2594 23.0598 92.2594 24.9977C92.2594 26.6914 92.6402 28.2326 93.3867 29.6059C94.1332 30.9792 95.1844 32.0473 96.525 32.7797C97.8656 33.5274 99.4043 33.8936 101.111 33.8936C103.106 33.8936 104.813 33.4969 106.168 32.7034L106.229 32.6729V28.8277L106.046 28.9497C105.422 29.4075 104.736 29.7585 103.99 30.0179C103.243 30.2773 102.573 30.4146 101.979 30.4146C100.334 30.4146 99.0082 29.8958 98.0484 28.8734C97.0887 27.8511 96.6012 26.4168 96.6012 24.6162C96.6012 22.8004 97.1039 21.3356 98.1094 20.2522C99.1148 19.1688 100.44 18.6195 102.04 18.6195C103.426 18.6195 104.767 19.0925 106.031 20.008L106.214 20.1301V16.0713L106.153 16.0407C105.681 15.7661 105.026 15.5525 104.218 15.3846C103.426 15.2473 102.634 15.1557 101.888 15.1557ZM89.3801 15.583H85.1906V33.4511H89.3801V15.583ZM87.3234 7.98408C86.6379 7.98408 86.0285 8.21296 85.541 8.68598C85.0383 9.15901 84.7945 9.73884 84.7945 10.4408C84.7945 11.1274 85.0383 11.7072 85.541 12.165C86.0285 12.6228 86.6379 12.8516 87.3387 12.8516C88.0395 12.8516 88.6488 12.6228 89.1363 12.165C89.6391 11.7072 89.8828 11.1274 89.8828 10.4408C89.8828 9.76936 89.6391 9.18952 89.1516 8.70124C88.6641 8.21296 88.0395 7.98408 87.3234 7.98408ZM76.8422 14.2707V33.4664H81.123V8.51813H75.1969L67.6559 27.0424L60.3434 8.51813H54.1734V33.4511H58.1953V14.2707H58.3324L66.0562 33.4664H69.0879L76.6898 14.2707H76.8422Z" fill="#C1C1C1"/>
<path d="M19.9265 19.9623H0.1828V0.186829H19.9265V19.9623Z" fill="#C1C1C1"/>
<path d="M41.7269 19.9623H21.9832V0.186829H41.7269V19.9623Z" fill="#C1C1C1"/>
<path d="M19.9265 41.813H0.1828V22.0375H19.9265V41.813Z" fill="#C1C1C1"/>
<path d="M41.7269 41.813H21.9832V22.0375H41.7269V41.813Z" fill="#C1C1C1"/>
</svg>
